<mxfile host="app.diagrams.net" modified="2024-06-04T14:02:48.035Z" agent="Mozilla/5.0 (Windows NT 10.0; Win64; x64) AppleWebKit/537.36 (KHTML, like Gecko) Chrome/121.0.0.0 Safari/537.36" etag="PcOOIcu_y-zK1Cj_Nod0" version="24.4.13" type="github">
  <diagram name="Página-1" id="Ia1PAmaYqWeQcfBVV1W_">
    <mxGraphModel dx="1434" dy="782" grid="1" gridSize="10" guides="1" tooltips="1" connect="1" arrows="1" fold="1" page="1" pageScale="1" pageWidth="827" pageHeight="1169" math="0" shadow="0">
      <root>
        <mxCell id="0" />
        <mxCell id="1" parent="0" />
        <mxCell id="oy9t7sTQedzILmiFfpFN-1" value="" style="rounded=1;whiteSpace=wrap;html=1;" vertex="1" parent="1">
          <mxGeometry x="260" y="80" width="260" height="480" as="geometry" />
        </mxCell>
        <mxCell id="oy9t7sTQedzILmiFfpFN-4" value="clientes" style="text;strokeColor=none;fillColor=none;html=1;fontSize=24;fontStyle=1;verticalAlign=middle;align=center;" vertex="1" parent="1">
          <mxGeometry x="290" y="110" width="100" height="40" as="geometry" />
        </mxCell>
        <mxCell id="oy9t7sTQedzILmiFfpFN-5" value="João" style="rounded=1;whiteSpace=wrap;html=1;align=left;" vertex="1" parent="1">
          <mxGeometry x="280" y="180" width="220" height="30" as="geometry" />
        </mxCell>
        <mxCell id="oy9t7sTQedzILmiFfpFN-7" value="Maria" style="rounded=1;whiteSpace=wrap;html=1;align=left;" vertex="1" parent="1">
          <mxGeometry x="280" y="230" width="220" height="30" as="geometry" />
        </mxCell>
        <mxCell id="oy9t7sTQedzILmiFfpFN-8" value="José" style="rounded=1;whiteSpace=wrap;html=1;align=left;" vertex="1" parent="1">
          <mxGeometry x="280" y="280" width="220" height="30" as="geometry" />
        </mxCell>
        <mxCell id="oy9t7sTQedzILmiFfpFN-9" value="Pedro" style="rounded=1;whiteSpace=wrap;html=1;align=left;" vertex="1" parent="1">
          <mxGeometry x="280" y="330" width="220" height="30" as="geometry" />
        </mxCell>
        <mxCell id="oy9t7sTQedzILmiFfpFN-10" value="Thiago" style="rounded=1;whiteSpace=wrap;html=1;align=left;" vertex="1" parent="1">
          <mxGeometry x="280" y="380" width="220" height="30" as="geometry" />
        </mxCell>
        <mxCell id="oy9t7sTQedzILmiFfpFN-12" value="" style="rounded=0;whiteSpace=wrap;html=1;" vertex="1" parent="1">
          <mxGeometry x="450" y="115" width="30" height="30" as="geometry" />
        </mxCell>
        <mxCell id="oy9t7sTQedzILmiFfpFN-14" value="" style="line;strokeWidth=1;rotatable=0;dashed=0;labelPosition=right;align=left;verticalAlign=middle;spacingTop=0;spacingLeft=6;points=[];portConstraint=eastwest;" vertex="1" parent="1">
          <mxGeometry x="455" y="125" width="20" height="10" as="geometry" />
        </mxCell>
        <mxCell id="oy9t7sTQedzILmiFfpFN-19" value="" style="endArrow=none;html=1;rounded=0;" edge="1" parent="1">
          <mxGeometry width="50" height="50" relative="1" as="geometry">
            <mxPoint x="464.5" y="140" as="sourcePoint" />
            <mxPoint x="464.5" y="130" as="targetPoint" />
            <Array as="points">
              <mxPoint x="464.5" y="120" />
            </Array>
          </mxGeometry>
        </mxCell>
        <mxCell id="oy9t7sTQedzILmiFfpFN-20" value="" style="line;strokeWidth=1;rotatable=0;dashed=0;labelPosition=right;align=left;verticalAlign=middle;spacingTop=0;spacingLeft=6;points=[];portConstraint=eastwest;" vertex="1" parent="1">
          <mxGeometry x="480" y="190" width="10" height="10" as="geometry" />
        </mxCell>
        <mxCell id="oy9t7sTQedzILmiFfpFN-25" value="" style="line;strokeWidth=1;rotatable=0;dashed=0;labelPosition=right;align=left;verticalAlign=middle;spacingTop=0;spacingLeft=6;points=[];portConstraint=eastwest;" vertex="1" parent="1">
          <mxGeometry x="480" y="240" width="10" height="10" as="geometry" />
        </mxCell>
        <mxCell id="oy9t7sTQedzILmiFfpFN-26" value="" style="line;strokeWidth=1;rotatable=0;dashed=0;labelPosition=right;align=left;verticalAlign=middle;spacingTop=0;spacingLeft=6;points=[];portConstraint=eastwest;" vertex="1" parent="1">
          <mxGeometry x="480" y="290" width="10" height="10" as="geometry" />
        </mxCell>
        <mxCell id="oy9t7sTQedzILmiFfpFN-27" value="" style="line;strokeWidth=1;rotatable=0;dashed=0;labelPosition=right;align=left;verticalAlign=middle;spacingTop=0;spacingLeft=6;points=[];portConstraint=eastwest;" vertex="1" parent="1">
          <mxGeometry x="480" y="340" width="10" height="10" as="geometry" />
        </mxCell>
        <mxCell id="oy9t7sTQedzILmiFfpFN-28" value="" style="line;strokeWidth=1;rotatable=0;dashed=0;labelPosition=right;align=left;verticalAlign=middle;spacingTop=0;spacingLeft=6;points=[];portConstraint=eastwest;" vertex="1" parent="1">
          <mxGeometry x="480" y="390" width="10" height="10" as="geometry" />
        </mxCell>
      </root>
    </mxGraphModel>
  </diagram>
</mxfile>
